<svg width="33" height="54" viewBox="0 0 33 54" fill="none" xmlns="http://www.w3.org/2000/svg">
<g clip-path="url(#clip0_33_263)">
<path d="M9.90004 6.75C9.90004 4.95979 10.5954 3.2429 11.8331 1.97703C13.0709 0.711159 14.7496 0 16.5 0C18.2505 0 19.9292 0.711159 21.1669 1.97703C22.4047 3.2429 23.1 4.95979 23.1 6.75C23.1 8.54021 22.4047 10.2571 21.1669 11.523C19.9292 12.7888 18.2505 13.5 16.5 13.5C14.7496 13.5 13.0709 12.7888 11.8331 11.523C10.5954 10.2571 9.90004 8.54021 9.90004 6.75ZM14.85 40.5V50.625C14.85 52.4918 13.3754 54 11.55 54C9.72473 54 8.25004 52.4918 8.25004 50.625V30.3539L6.09473 33.8555C5.12535 35.4375 3.08348 35.9016 1.54691 34.9102C0.0103514 33.9188 -0.464024 31.841 0.505351 30.2695L4.62004 23.5934C7.18785 19.4062 11.6738 16.875 16.5 16.875C21.3263 16.875 25.8122 19.4062 28.38 23.5828L32.4947 30.2695C33.4641 31.8516 33 33.9293 31.4635 34.9207C29.9269 35.9121 27.885 35.4375 26.9157 33.866L24.75 30.3539V50.625C24.75 52.4918 23.2754 54 21.45 54C19.6247 54 18.15 52.4918 18.15 50.625V40.5H14.85Z" fill="#FB9333"/>
</g>
<defs>
<clipPath id="clip0_33_263">
<rect width="33" height="54" fill="white"/>
</clipPath>
</defs>
</svg>
