<svg width="62" height="59" viewBox="0 0 62 59" fill="none" xmlns="http://www.w3.org/2000/svg">
<path d="M17.642 15.7756C14.4774 12.3416 14.4774 6.76426 17.642 3.33028C20.8066 -0.103705 25.9302 -0.103705 29.0948 3.33028L31 5.4045L32.9052 3.33028C36.0698 -0.103705 41.1934 -0.103705 44.358 3.33028C47.5226 6.76426 47.5226 12.3416 44.358 15.7756L33.4219 27.6678C32.7545 28.3938 31.8826 28.751 31 28.751C30.1174 28.751 29.2455 28.3938 28.5781 27.6678L17.642 15.7756ZM61.1604 38.7533C62.5705 40.8045 62.1615 43.6854 60.2455 45.1949L46.6184 55.9463C44.0997 57.9283 41.0642 59 37.9319 59H20.6667H3.44444C1.53924 59 0 57.3522 0 55.3125V47.9375C0 45.8979 1.53924 44.25 3.44444 44.25H7.40556L12.2385 40.1016C14.6819 38.0043 17.7174 36.875 20.8497 36.875H29.2778H31H37.8889C39.7941 36.875 41.3333 38.5229 41.3333 40.5625C41.3333 42.6022 39.7941 44.25 37.8889 44.25H31H29.2778C28.3306 44.25 27.5556 45.0797 27.5556 46.0938C27.5556 47.1078 28.3306 47.9375 29.2778 47.9375H42.259L55.1434 37.7738C57.0594 36.2643 59.7503 36.7022 61.1604 38.7533ZM20.8389 44.25H20.742C20.7743 44.25 20.8066 44.25 20.8389 44.25Z" fill="#FB9333"/>
</svg>
