<svg width="57" height="56" viewBox="0 0 57 56" fill="none" xmlns="http://www.w3.org/2000/svg">
<path d="M25.4162 51.3078L5.29922 32.8563C4.83164 32.4297 4.38633 31.9703 3.97441 31.5H13.66C16.176 31.5 18.4471 30.0125 19.4156 27.7266L20.5846 24.9703L26.073 36.9469C26.4961 37.8766 27.4201 38.4781 28.4555 38.4891C29.4908 38.5 30.4371 37.9422 30.9047 37.0344L35.625 27.7484L35.8143 28.1203C36.8719 30.1984 39.0316 31.5109 41.3918 31.5109H53.0256C52.6137 31.9813 52.1684 32.4406 51.7008 32.8672L31.5838 51.3078C30.7488 52.0734 29.6467 52.5 28.5 52.5C27.3533 52.5 26.2512 52.0734 25.4162 51.3078ZM56.076 26.25H41.3807C41.0467 26.25 40.735 26.0641 40.5791 25.7688L37.9963 20.7047C37.5398 19.8188 36.6158 19.25 35.6027 19.25C34.5896 19.25 33.6656 19.8078 33.2092 20.7047L28.6002 29.7609L22.9225 17.3031C22.4883 16.3516 21.5086 15.7391 20.451 15.7609C19.3934 15.7828 18.4359 16.4063 18.024 17.3797L14.4838 25.725C14.3502 26.0531 14.0162 26.2609 13.66 26.2609H1.78125C1.4918 26.2609 1.22461 26.3047 0.968555 26.3813C0.333984 24.6313 0 22.7719 0 20.8797V20.2453C0 12.6 5.62207 6.08126 13.2926 4.82344C18.3691 3.99219 23.5348 5.62188 27.1641 9.18751L28.5 10.5L29.8359 9.18751C33.4652 5.62188 38.6309 3.99219 43.7074 4.82344C51.3779 6.08126 57 12.6 57 20.2453V20.8797C57 22.7281 56.6883 24.5438 56.076 26.25Z" fill="#FB9333"/>
</svg>
