<svg width="56" height="47" viewBox="0 0 56 47" fill="none" xmlns="http://www.w3.org/2000/svg">
<g clip-path="url(#clip0_33_265)">
<path d="M6.52748 34.2585C10.1762 37.5724 15.9775 41.8317 21.0612 41.0239C21.595 40.9413 22.12 40.7944 22.6362 40.6108C21.8312 39.4817 21.1225 38.371 20.5187 37.3612C18.6025 34.1483 17.9987 30.4581 18.2525 26.9331C16.45 27.3095 14.8225 28.1265 13.4662 29.2647C12.8975 29.7421 12.04 29.3841 12.1712 28.6222C12.7312 25.547 15.0587 23.0317 18.1387 22.536C18.3662 22.4993 18.6025 22.4718 18.83 22.4626L20.5275 10.4097C20.7025 9.14287 21.2275 7.40791 22.715 6.19619C24.3425 4.88349 27.1687 3.39639 31.78 2.95576C31.71 2.8915 31.64 2.82724 31.57 2.76299C29.8025 1.33096 25.235 -1.05576 15.3737 0.513964C5.51248 2.08369 1.79373 5.7831 0.49873 7.70166C-1.96934e-05 8.43603 -0.0700197 9.36318 0.0524803 10.2628L2.16998 25.345C2.65123 28.769 4.05123 32.0095 6.52748 34.2677V34.2585ZM14.2012 14.0999C14.5862 13.8153 15.1462 13.9163 15.2337 14.4028C15.2425 14.4487 15.2512 14.5038 15.26 14.5497C15.54 16.5509 14.245 18.4052 12.3637 18.7081C10.4825 19.011 8.73248 17.6249 8.45248 15.6329C8.44373 15.587 8.44373 15.5319 8.43498 15.486C8.38248 14.9903 8.88998 14.7149 9.33623 14.871C10.1237 15.1464 10.9812 15.229 11.8475 15.0913C12.7137 14.9536 13.5187 14.6048 14.1925 14.0999H14.2012ZM22.89 35.8007C25.4625 40.106 29.8462 45.981 34.93 46.7888C40.0137 47.5966 45.8237 43.3464 49.4637 40.0233C51.94 37.7743 53.34 34.5339 53.8212 31.1007L55.9387 16.0185C56.0612 15.1188 55.9912 14.1917 55.4925 13.4573C54.1975 11.5388 50.4787 7.83935 40.6175 6.26963C30.7562 4.6999 26.1975 7.08662 24.43 8.51865C23.7475 9.06943 23.4237 9.93232 23.3012 10.8319L21.1837 25.9142C20.7025 29.3382 21.1487 32.8724 22.8987 35.8007H22.89ZM35.3937 21.5997C34.72 21.0948 33.9237 20.746 33.0487 20.6083C32.1737 20.4706 31.3162 20.5532 30.5375 20.8286C30.0912 20.9847 29.5837 20.7093 29.6362 20.2136C29.645 20.1677 29.645 20.1126 29.6537 20.0667C29.9337 18.0655 31.6837 16.6886 33.565 16.9915C35.4462 17.2944 36.7412 19.1487 36.4612 21.1499C36.4525 21.1958 36.4437 21.2509 36.435 21.2968C36.3475 21.7833 35.7875 21.8843 35.4025 21.5997H35.3937ZM47.3112 23.0226C47.2237 23.5091 46.6637 23.6101 46.2787 23.3255C45.605 22.8206 44.8087 22.4718 43.9337 22.3341C43.0587 22.1964 42.2012 22.279 41.4225 22.5544C40.9762 22.7104 40.4687 22.4351 40.5212 21.9394C40.53 21.8935 40.53 21.8384 40.5387 21.7925C40.8187 19.7913 42.5687 18.4144 44.45 18.7173C46.3312 19.0202 47.6262 20.8745 47.3462 22.8757C47.3375 22.9216 47.3287 22.9767 47.32 23.0226H47.3112ZM46.375 32.1472C44.66 36.2505 40.53 38.8024 36.155 38.1048C31.78 37.4071 28.5337 33.6802 28.0175 29.228C27.93 28.4661 28.7962 28.1173 29.3475 28.613C31.4387 30.5224 34.0375 31.8534 36.96 32.3124C39.8825 32.7714 42.7437 32.3216 45.2637 31.1374C45.9287 30.8253 46.6637 31.4311 46.3662 32.138L46.375 32.1472Z" fill="#FB9333"/>
</g>
<defs>
<clipPath id="clip0_33_265">
<rect width="56" height="47" fill="white"/>
</clipPath>
</defs>
</svg>
